<svg xmlns="http://www.w3.org/2000/svg" xmlns:ev="http://www.w3.org/2001/xml-events" xmlns:xlink="http://www.w3.org/1999/xlink" width="521" height="521" baseProfile="full" version="1.1"><polygon fill="#E4761B" stroke="#E4761B" points="444.729 312.844 420.328 395.352 372.449 382.271"/><polygon fill="#E4761B" stroke="#E4761B" points="372.449 382.271 418.583 318.986 444.729 312.844"/><polygon fill="#F6851B" stroke="#F6851B" points="408.825 250.702 444.729 312.844 418.583 318.986"/><polygon fill="#F6851B" stroke="#F6851B" points="408.825 250.702 431.922 234.709 444.729 312.844"/><polygon fill="#763D16" stroke="#763D16" points="379.45 203.685 445.798 176.511 442.515 191.379"/><polygon fill="#763D16" stroke="#763D16" points="440.427 209.31 379.45 203.685 442.515 191.379"/><polygon fill="#763D16" stroke="#763D16" points="440.427 209.31 431.922 234.709 379.45 203.685"/><polygon fill="#763D16" stroke="#763D16" points="453.669 182.719 442.515 191.379 445.798 176.511"/><polygon fill="#763D16" stroke="#763D16" points="440.427 209.31 442.515 191.379 451.445 198.722"/><polygon fill="#E2761B" stroke="#E2761B" points="320.899 362.212 337.525 367.505 372.449 382.271"/><polygon fill="#763D16" stroke="#763D16" points="431.922 234.709 440.427 209.31 447.736 214.82"/><polygon fill="#763D16" stroke="#763D16" points="431.922 234.709 362.972 211.967 379.45 203.685"/><polygon fill="#763D16" stroke="#763D16" points="395.859 125.743 379.45 203.685 362.972 211.967"/><polygon fill="#763D16" stroke="#763D16" points="445.798 176.511 379.45 203.685 395.859 125.743"/><polygon fill="#763D16" stroke="#763D16" points="395.859 125.743 465.066 117.76 445.798 176.511"/><polygon fill="#F6851B" stroke="#F6851B" points="431.922 234.709 408.825 250.702 362.972 211.967"/><polygon fill="#763D16" stroke="#763D16" points="462.115 61.701 465.066 117.76 395.859 125.743"/><polygon fill="#E2761B" stroke="#E2761B" points="462.115 61.701 323.611 162.374 321.858 94.077"/><polygon fill="#F6851B" stroke="#F6851B" points="218.789 85.862 321.858 94.077 323.611 162.374"/><polygon fill="#763D16" stroke="#763D16" points="362.972 211.967 323.611 162.374 395.859 125.743"/><polygon fill="#E4761B" stroke="#E4761B" points="362.972 211.967 408.825 250.702 344.537 257.744"/><polygon fill="#E4761B" stroke="#E4761B" points="344.537 257.744 323.611 162.374 362.972 211.967"/><polygon fill="#763D16" stroke="#763D16" points="395.859 125.743 323.611 162.374 462.115 61.701"/><polygon fill="#C0AD9E" stroke="#C0AD9E" points="219.693 380.682 252.396 414.737 207.918 374.284"/><polygon fill="#CD6116" stroke="#CD6116" points="372.449 382.271 387.896 323.376 418.583 318.986"/><polygon fill="#E2761B" stroke="#E2761B" points="87.096 216.534 143.666 157.095 94.448 209.499"/><polygon fill="#F6851B" stroke="#F6851B" points="418.583 318.986 387.896 323.376 408.825 250.702"/><polygon fill="#F6851B" stroke="#F6851B" points="323.611 162.374 268.465 160.598 218.789 85.862"/><polygon fill="#E4751F" stroke="#E4751F" points="408.825 250.702 387.896 323.376 386.17 287.839"/><polygon fill="#CD6116" stroke="#CD6116" points="344.537 257.744 408.825 250.702 386.17 287.839"/><polygon fill="#F6851B" stroke="#F6851B" points="268.465 160.598 323.611 162.374 344.537 257.744"/><polygon fill="#E4761B" stroke="#E4761B" points="268.465 160.598 119.852 22.923 218.789 85.862"/><polygon fill="#E4761B" stroke="#E4761B" points="218.676 401.538 89.487 441.522 63.675 343.08"/><polygon fill="#763D16" stroke="#763D16" points="106.354 241.119 155.153 202.888 196 212.371"/><polygon fill="#763D16" stroke="#763D16" points="196 212.371 155.153 202.888 177.061 112.441"/><polygon fill="#763D16" stroke="#763D16" points="94.448 209.499 155.153 202.888 106.354 241.119"/><polygon fill="#CD6116" stroke="#CD6116" points="386.17 287.839 361.048 275.152 344.537 257.744"/><polygon fill="#763D16" stroke="#763D16" points="94.448 209.499 90.144 186.771 155.153 202.888"/><polygon fill="#233447" stroke="#233447" points="355.79 303.734 361.048 275.152 386.17 287.839"/><polygon fill="#F6851B" stroke="#F6851B" points="387.896 323.376 355.79 303.734 386.17 287.839"/><polygon fill="#763D16" stroke="#763D16" points="155.153 202.888 90.144 186.771 84.835 167.691"/><polygon fill="#763D16" stroke="#763D16" points="177.061 112.441 155.153 202.888 84.835 167.691"/><polygon fill="#763D16" stroke="#763D16" points="177.061 112.441 268.465 160.598 196 212.371"/><polygon fill="#E4761B" stroke="#E4761B" points="196 212.371 268.465 160.598 300.769 259.265"/><polygon fill="#E4761B" stroke="#E4761B" points="300.769 259.265 200.568 257.199 196 212.371"/><polygon fill="#F6851B" stroke="#F6851B" points="106.354 241.119 196 212.371 200.568 257.199"/><polygon fill="#F6851B" stroke="#F6851B" points="344.537 257.744 300.769 259.265 268.465 160.598"/><polygon fill="#CD6116" stroke="#CD6116" points="361.048 275.152 355.79 303.734 344.537 257.744"/><polygon fill="#763D16" stroke="#763D16" points="119.852 22.923 268.465 160.598 177.061 112.441"/><polygon fill="#E4761B" stroke="#E4761B" points="63.675 343.08 189.064 337.894 218.676 401.538"/><polygon fill="#CD6116" stroke="#CD6116" points="218.676 401.538 189.064 337.894 250.733 334.862"/><polygon fill="#F6851B" stroke="#F6851B" points="355.79 303.734 387.896 323.376 405.663 365.022"/><polygon fill="#F6851B" stroke="#F6851B" points="200.568 257.199 63.675 343.08 106.354 241.119"/><polygon fill="#F6851B" stroke="#F6851B" points="189.064 337.894 63.675 343.08 200.568 257.199"/><polygon fill="#F6851B" stroke="#F6851B" points="344.537 257.744 352.715 287.594 313.107 289.82"/><polygon fill="#F6851B" stroke="#F6851B" points="313.107 289.82 300.769 259.265 344.537 257.744"/><polygon fill="#C0AD9E" stroke="#C0AD9E" points="252.396 414.737 218.676 401.538 335.954 421.276"/><polygon fill="#763D16" stroke="#763D16" points="106.354 241.119 87.096 216.534 94.448 209.499"/><polygon fill="#D7C1B3" stroke="#D7C1B3" points="349.248 406.698 335.954 421.276 218.676 401.538"/><polygon fill="#E4761B" stroke="#E4761B" points="355.559 370.815 218.676 401.538 250.733 334.862"/><polygon fill="#D7C1B3" stroke="#D7C1B3" points="218.676 401.538 355.559 370.815 349.248 406.698"/><polygon fill="#763D16" stroke="#763D16" points="84.835 167.691 80.308 90.742 177.061 112.441"/><polygon fill="#763D16" stroke="#763D16" points="94.448 209.499 81.121 195.926 90.144 186.771"/><polygon fill="#CD6116" stroke="#CD6116" points="278.423 279.087 300.769 259.265 297.588 307.682"/><polygon fill="#CD6116" stroke="#CD6116" points="300.769 259.265 278.423 279.087 245.862 295.941"/><polygon fill="#F6851B" stroke="#F6851B" points="405.663 365.022 399.504 360.595 355.79 303.734"/><polygon fill="#CD6116" stroke="#CD6116" points="245.862 295.941 200.568 257.199 300.769 259.265"/><polygon fill="#E4751F" stroke="#E4751F" points="297.588 307.682 300.769 259.265 313.107 289.82"/><polygon fill="#763D16" stroke="#763D16" points="76.76 175.247 84.835 167.691 90.144 186.771"/><polygon fill="#233447" stroke="#233447" points="297.588 307.682 245.862 295.941 278.423 279.087"/><polygon fill="#763D16" stroke="#763D16" points="177.061 112.441 80.308 90.742 119.852 22.923"/><polygon fill="#C0AD9E" stroke="#C0AD9E" points="335.954 421.276 341.377 436.222 252.396 414.737"/><polygon fill="#F6851B" stroke="#F6851B" points="250.733 334.862 245.862 295.941 297.588 307.682"/><polygon fill="#E4751F" stroke="#E4751F" points="200.568 257.199 245.862 295.941 250.733 334.862"/><polygon fill="#F6851B" stroke="#F6851B" points="313.107 289.82 352.715 287.594 399.504 360.595"/><polygon fill="#F6851B" stroke="#F6851B" points="200.568 257.199 250.733 334.862 189.064 337.894"/><polygon fill="#E4751F" stroke="#E4751F" points="313.107 289.82 362.299 364.756 297.588 307.682"/><polygon fill="#F6851B" stroke="#F6851B" points="297.588 307.682 362.299 364.756 355.559 370.815"/><polygon fill="#F6851B" stroke="#F6851B" points="355.559 370.815 250.733 334.862 297.588 307.682"/><polygon fill="#F6851B" stroke="#F6851B" points="399.504 360.595 362.299 364.756 313.107 289.82"/><polygon fill="#C0AD9E" stroke="#C0AD9E" points="409.31 395.794 393.331 427.878 341.377 436.222"/><polygon fill="#C0AD9E" stroke="#C0AD9E" points="341.377 436.222 335.954 421.276 349.248 406.698"/><polygon fill="#C0AD9E" stroke="#C0AD9E" points="349.248 406.698 359.014 402.773 341.377 436.222"/><polygon fill="#C0AD9E" stroke="#C0AD9E" points="341.377 436.222 359.014 402.773 409.31 395.794"/><polygon fill="#161616" stroke="#161616" points="399.504 360.595 411.773 368.103 374.396 372.53"/><polygon fill="#161616" stroke="#161616" points="374.396 372.53 362.299 364.756 399.504 360.595"/><polygon fill="#161616" stroke="#161616" points="370.114 378.491 415.613 372.924 409.31 395.794"/><polygon fill="#161616" stroke="#161616" points="409.31 395.794 359.014 402.773 370.114 378.491"/><polygon fill="#161616" stroke="#161616" points="359.014 402.773 349.248 406.698 355.559 370.815"/><polygon fill="#161616" stroke="#161616" points="355.559 370.815 362.299 364.756 374.396 372.53"/><polygon fill="#161616" stroke="#161616" points="411.773 368.103 415.613 372.924 370.114 378.491"/><polygon fill="#161616" stroke="#161616" points="370.114 378.491 374.396 372.53 411.773 368.103"/><polygon fill="#161616" stroke="#161616" points="355.559 370.815 370.114 378.491 359.014 402.773"/><polygon fill="#161616" stroke="#161616" points="374.396 372.53 370.114 378.491 355.559 370.815"/></svg>